<svg width="1682" height="1707" viewBox="0 0 1682 1707" fill="none" xmlns="http://www.w3.org/2000/svg">
<g id="1294344 1" clip-path="url(#clip0_0_1)">
<g id="Group">
<path id="Vector" d="M1476.27 10.6667C1437.87 16.4 1406.27 21.3333 1406 21.6C1405.47 22.1333 1449.47 332.4 1450.13 333.2C1450.53 333.733 1593.47 314.667 1594.27 314.133C1594.53 314 1588.13 267.6 1580.13 211.2C1572.13 154.8 1562.13 84.2666 1557.87 54.2667C1551.47 8.53332 1549.87 -1.26912e-05 1548.13 0.133321C1546.93 0.266654 1514.53 5.06665 1476.27 10.6667Z" fill="#01A9C1"/>
<path id="Vector_2" d="M1525.33 372.933C1488.27 378.4 1457.6 383.333 1457.2 383.733C1456.8 384.267 1459.33 404.8 1462.8 429.333C1466.4 453.867 1472.27 495.6 1476 522C1479.73 548.4 1486.27 595.2 1490.67 626C1495.07 656.8 1504.53 724.533 1511.87 776.667C1519.2 828.667 1526.27 878.533 1527.6 887.333C1529.47 900.133 1530 911.6 1529.87 945.333C1529.87 984.8 1529.6 988.533 1526.4 1006.67C1524.4 1017.33 1520.67 1033.33 1518.13 1042.27C1512.4 1062.13 1359.87 1443.47 1351.07 1460C1332.8 1494.27 1308.13 1516.4 1280.53 1523.2C1276.13 1524.27 1257.73 1527.07 1239.33 1529.33C1206.4 1533.33 1163.07 1539.33 1155.47 1540.93L1151.47 1541.6L1155.6 1536.53C1170.67 1517.2 1186.53 1484.27 1193.87 1457.33C1200.4 1432.93 1201.87 1421.2 1201.87 1392.67C1201.87 1366.93 1200.4 1352.4 1195.87 1335.73L1194.67 1330.93L1160.27 1339.6C1141.47 1344.4 1125.6 1348.8 1125.07 1349.2C1124.53 1349.6 1126 1356.8 1128.13 1365.07C1130.4 1373.47 1132 1380.4 1131.73 1380.53C1131.47 1380.8 1120 1389.47 1106 1399.87C1092.13 1410.27 1080.53 1419.33 1080.27 1419.87C1080.13 1420.4 1084.13 1436 1089.33 1454.53C1094.4 1472.93 1098.67 1488.93 1098.67 1490C1098.67 1493.07 1080.8 1513.47 1070.4 1522.13C1044.4 1544 1015.47 1557.2 983.733 1561.87C966.4 1564.53 956.533 1564.53 939.333 1562C923.6 1559.73 909.733 1556 896.533 1550.53L887.067 1546.53L878 1511.33C871.333 1485.2 868.4 1475.87 866.8 1475.47C865.6 1475.2 850.8 1473.2 833.867 1471.2L803.067 1467.47L799.2 1453.47C795.333 1439.47 795.333 1439.33 791.333 1439.47C787.467 1439.47 728.933 1454.13 725.733 1455.87C723.2 1457.2 733.467 1485.87 743.333 1505.2C772 1560.53 821.067 1602.93 881.067 1624L894.8 1628.93L899.2 1639.6C914.267 1676.93 941.067 1695.73 990.667 1703.73C1009.87 1706.8 1074.4 1706.67 1110 1703.47C1184.53 1696.8 1313.6 1679.87 1339.47 1673.33C1406.8 1656.4 1450.67 1610.8 1491.73 1515.33C1504.8 1484.93 1667.73 1067.47 1671.2 1055.6C1682.27 1017.6 1684 967.6 1676.67 904.267C1675.47 894.933 1667.73 837.867 1659.33 777.333C1638.4 628.133 1638.4 627.6 1619.33 491.333C1610.27 425.333 1602.4 369.333 1602 366.933C1601.33 363.067 1600.8 362.667 1596.93 362.8C1594.53 362.933 1562.4 367.467 1525.33 372.933Z" fill="#027495"/>
<path id="Vector_3" d="M964.667 502.667C954.4 505.467 927.467 512.533 904.667 518.533C882 524.4 833.6 537.067 797.333 546.667C761.067 556.267 712.8 568.933 690 574.8C667.333 580.8 641.2 587.6 632 590C622.8 592.533 587.467 601.733 553.333 610.667C519.2 619.6 472.4 631.867 449.333 637.867C426.267 644 388.4 653.867 365.333 660C342.267 666 316.133 672.933 307.333 675.2L291.333 679.467L288 706.533L284.667 733.6L191.333 787.2C140 816.667 93.4666 843.733 88 847.333C82.5333 850.933 71.7333 860.267 64 868C48.5333 883.333 41.7333 894.267 35.7333 913.333C33.0666 922.267 32.6666 925.867 32.6666 946.667C32.8 964.267 33.3333 972.533 35.2 980C40 1000.53 41.4666 997.2 19.3333 1014.53C5.73329 1025.2 0.133293 1030.4 0.533293 1031.87C0.933293 1033.07 10.2666 1069.07 21.3333 1112C32.5333 1154.93 44.8 1202.13 48.6666 1217.07C52.4 1231.87 56 1244.4 56.4 1244.8C56.8 1245.33 67.8666 1248.4 80.8 1252L104.533 1258.27L109.2 1270.13C123.333 1305.07 151.467 1334.4 189.067 1353.2C202.4 1359.87 223.467 1366.4 236.667 1367.87C255.467 1370 423.6 1373.73 464.133 1372.93C488.533 1372.53 504.933 1371.47 513.333 1370.13C558 1362.53 584.267 1346.27 594.8 1319.87C599.467 1308 612.267 1255.6 630 1175.33C639.2 1133.47 648.8 1091.47 651.333 1082C653.867 1072.4 658.667 1052.4 662 1037.47C673.733 986 683.733 961.067 699.467 944.133C724.533 917.2 756.933 918.4 793.6 947.867C810.267 961.333 859.867 1014 923.467 1086C980.667 1150.93 1026.4 1200.13 1035.33 1206.53C1066.53 1228.93 1106.93 1223.33 1175.07 1186.93C1185.2 1181.6 1216.93 1163.33 1245.73 1146.53C1274.53 1129.6 1315.07 1105.73 1336 1093.6C1371.2 1072.93 1374.8 1070.53 1386 1059.33C1422.4 1023.33 1440.67 970.4 1432.53 924.533L1430.53 912.667L1449.2 894.667L1468 876.667L1459.2 843.333C1454.4 824.933 1441.87 777.067 1431.33 736.933C1420.8 696.667 1412 663.6 1411.73 663.333C1411.47 663.067 1400.93 661.067 1388.13 658.8C1375.47 656.667 1364.93 654.667 1364.67 654.4C1364.53 654.133 1362.13 647.333 1359.47 639.333C1340.67 582.667 1310 554.933 1257.2 546.667C1248.8 545.333 1130.93 543.2 1039.73 542.8L1020.13 542.667L1003.87 520C993.733 505.733 986.933 497.333 985.6 497.467C984.267 497.467 974.933 499.867 964.667 502.667ZM1236.27 625.333C1252.67 630.4 1268.8 642.267 1282.13 659.2C1291.2 670.533 1302.27 691.6 1306.53 705.333C1314.13 729.733 1357.33 895.867 1358 903.733C1359.73 920.8 1354.4 948.133 1345.2 969.733C1340 982 1328 1000.13 1321.6 1005.07C1316 1009.6 1175.87 1097.07 1162.67 1104.4C1141.73 1115.87 1122 1121.33 1100.8 1121.33C1078.53 1121.33 1064.13 1116.8 1049.07 1105.2C1044.8 1101.87 1005.87 1058.93 957.733 1004.67C911.6 952.533 854.533 888.133 830.8 861.333C807.067 834.533 784.667 808.267 781.067 802.933C752.267 760.533 753.333 721.067 783.867 699.733C800.667 688 813.733 684.8 906 669.467C962.667 660 989.467 655.6 1095.33 638.667C1127.6 633.6 1164.27 627.6 1176.67 625.467C1203.07 620.8 1221.6 620.8 1236.27 625.333ZM581.2 758.933C599.6 765.733 611.467 780.4 617.333 803.6C620.8 817.067 621.867 835.333 620.267 850.267C618.533 865.067 538.533 1225.87 534.667 1236.27C521.867 1270.67 485.6 1292.4 438 1294.27C422.533 1294.8 270.267 1288.13 251.333 1286C242.8 1285.07 227.2 1278.27 216 1270.67C196.667 1257.73 173.067 1230.67 165.467 1212.93C164 1209.47 155.067 1177.07 145.867 1140.93C136.533 1104.8 125.733 1062.67 121.733 1047.33C111.067 1005.87 110.4 1002.53 110.4 983.333C110.267 962.8 113.467 947.733 121.067 932C126.8 920.267 140.133 905.467 150.933 899.067C154.8 896.667 174.267 888.667 194 881.2C293.467 843.867 483.333 774.8 520.267 762.667C544.8 754.533 565.733 753.2 581.2 758.933Z" fill="#164F55"/>
<path id="Vector_4" d="M735.333 980.133C720.667 997.6 701.2 1070.4 664.133 1245.33C658.267 1272.8 653.733 1295.47 653.867 1295.73C654.267 1296.13 663.733 1293.73 751.067 1270.53C866.267 1240 888.667 1234.13 927.333 1224C950.133 1218 969.067 1212.67 969.467 1212.27C970.267 1211.33 908 1139.6 856.933 1082.67C824.533 1046.53 779.067 1000 765.6 989.2C748.133 975.067 741.333 973.067 735.333 980.133Z" fill="#164F55"/>
</g>
</g>
<defs>
<clipPath id="clip0_0_1">
<rect width="1681.33" height="1706.67" fill="white"/>
</clipPath>
</defs>
</svg>
