<svg width="314" height="456" viewBox="0 0 314 456" fill="none" xmlns="http://www.w3.org/2000/svg">
<g id="Rectangle 1" filter="url(#filter0_di_0_1)">
<path d="M15 121L23 106.5L24 107L19 132L17 154L18 165.5L20.5 176.5L24 186L29.5 196.5L42.5 214.5L51 226.5L59 239L63 246.5L65.5 255L67.5 263L68 271L65.5 294.5L57 319L52 342.5L49 365.5L50.5 394.5L46 395L42 395.5L37.5 386.5L33 368.5L32 357V346L34.5 328L38 311L43.5 287.5L44 277L42.5 268L40 260L15.5 209L7 187.5L5 176.5L4 165V154L6 142L15 121Z" fill="#3E7D50"/>
</g>
<path id="Line 8" d="M26.6504 101.373C26.9431 100.905 26.8008 100.288 26.3324 99.9952C25.8641 99.7025 25.2472 99.8448 24.9544 100.313L26.6504 101.373ZM41.3037 294.343L40.3359 294.091L40.333 294.102L40.3304 294.114L41.3037 294.343ZM18.1979 213.396C6.26369 189.529 2.92977 170.315 5.26155 152.726C7.59687 135.11 15.628 119.009 26.6504 101.373L24.9544 100.313C13.8907 118.015 5.67181 134.413 3.2789 152.463C0.882459 170.54 4.34214 190.158 16.4091 214.29L18.1979 213.396ZM42.3969 395.558C27.2614 364.861 31.5937 339.879 42.277 294.573L40.3304 294.114C29.6549 339.387 25.1165 365.033 40.6031 396.442L42.3969 395.558ZM42.2715 294.595C43.9167 288.272 44.7542 283.008 44.6837 277.913C44.6131 272.81 43.6325 267.925 41.6975 262.353C37.853 251.284 30.1638 237.327 18.1979 213.396L16.4091 214.29C28.4443 238.36 36.0203 252.103 39.8082 263.009C41.6894 268.426 42.6169 273.097 42.6839 277.941C42.751 282.792 41.9559 287.865 40.3359 294.091L42.2715 294.595Z" fill="black"/>
<path id="Line 7" d="M51 393.5C46.2066 357.418 52.5018 335.086 64.8014 296.843C75.5148 254.321 60.1898 238.619 38.8014 208.343C14.4152 177.368 12.1607 153.394 25.8058 100.432" stroke="black" stroke-width="2" stroke-linecap="round"/>
<g id="Rectangle 2">
<g filter="url(#filter1_i_0_1)">
<path d="M107 130.5L108 124L109.5 125L113.5 133L119 146.5L125 169L127.5 187.5V205L124.5 224L114.5 240L102.5 256.5L92.5 275L90.5 282.5L88 292.5L89 303L90.5 312L93.5 332L91.5 356.5L85.5 380.5L83 389L79 396L67 395.5L70 381L73.5 366L75.5 350L75 337L71.5 321L67 304.5L64 287V278L65.5 271.5L67.5 264.5L74.5 252L82 240L94.5 221.5L100 209.5L102.5 202.5L104.5 195.5L106.5 180.5V166L106 150L107 130.5Z" fill="#6DBF7B"/>
</g>
<path d="M92.0601 274.762L92.0321 274.814L92.0169 274.871L90.0168 282.371L90.0149 282.379L87.5149 292.379L87.4941 292.462L87.5023 292.547L88.5023 303.047L88.5039 303.065L88.5068 303.082L90.0055 312.074L90.0068 312.082L92.997 332.017L91.005 356.418L85.0203 380.359L85.0149 380.379L82.5368 388.803L78.7168 395.488L67.6089 395.025L70.4869 381.114L70.4896 381.101L73.9869 366.114L73.9929 366.088L73.9961 366.062L75.9961 350.062L76.0012 350.022L75.9996 349.981L75.4996 336.981L75.4979 336.936L75.4885 336.893L71.9885 320.893L71.9857 320.881L71.9824 320.868L67.4887 304.392L64.5 286.957V278.057L65.9843 271.625L67.9647 264.693L74.9304 252.255L82.4193 240.273L94.9143 221.78L94.9374 221.746L94.9545 221.708L100.455 209.708L100.464 209.689L100.471 209.668L102.971 202.668L102.976 202.653L102.981 202.637L104.981 195.637L104.991 195.602L104.996 195.566L106.996 180.566L107 180.533V180.5V166V165.992L107 165.984L106.5 150.005L107.498 130.551L108.375 124.851L109.112 125.342L113.044 133.206L118.525 146.659L124.509 169.098L127 187.534V204.961L124.022 223.821L114.085 239.72L102.096 256.206L102.076 256.233L102.06 256.262L92.0601 274.762Z" stroke="black"/>
</g>
<path id="Line 10" d="M66.5 394.5C74.8547 356.501 78.8888 352.517 69.3889 314.517C59.889 276.517 58.389 273.017 90.8808 227.016C116.39 187.017 100.51 161.501 108 122" stroke="black" stroke-width="2" stroke-linecap="round"/>
<path id="Line 9" d="M79.8852 396.618C79.8852 396.618 100.895 350.017 90.3901 310.517C79.8852 271.017 118.39 241.017 124.89 222.017C131.389 203.017 129.123 159.226 107.885 121.618" stroke="black" stroke-width="2" stroke-linecap="round"/>
<g id="Rectangle 4" filter="url(#filter2_di_0_1)">
<path d="M166.5 302L165.5 291.5L164.5 281L163.5 272.5L163 265.5L163.5 244L165 228L168 210.5L173.5 194.5L181.5 178L186 168L191.5 158L200 144.5L206 137L212.5 130L219 124L225.5 119L230.5 114.5L237 110.5L230 120L211.5 145.5L204.5 157L198 171.5L192 190L188.5 208L187.25 228.25L186 248.5L187 266V283L186.5 319L183.5 339L178.5 363L171.5 385L160.5 386L164.5 363L166.5 339.5L167 320.5L166.5 302Z" fill="#6DBF7B"/>
</g>
<path id="Line 3" d="M240.821 107.361C241.158 106.923 241.076 106.295 240.639 105.958C240.201 105.622 239.573 105.703 239.236 106.141L240.821 107.361ZM186.499 252L185.499 252L185.499 252.018L185.5 252.035L186.499 252ZM172.448 385.819C179.956 363.545 184.356 347.843 186.555 328.802C188.752 309.783 188.748 287.466 187.498 251.965L185.5 252.035C186.75 287.534 186.746 309.717 184.569 328.573C182.393 347.407 178.044 362.955 170.552 385.181L172.448 385.819ZM187.499 252C187.499 210.844 193.175 184.682 202.635 163.849C212.11 142.982 225.395 127.41 240.821 107.361L239.236 106.141C223.89 126.086 210.41 141.888 200.814 163.022C191.202 184.19 185.499 210.656 185.499 252L187.499 252Z" fill="black"/>
<path id="Line 4" d="M240.145 107.764C240.567 107.408 240.62 106.777 240.264 106.355C239.908 105.933 239.277 105.88 238.855 106.236L240.145 107.764ZM162.999 267L161.999 267.006L161.999 267.05L162.003 267.093L162.999 267ZM173.998 192.5L173.081 192.101L173.078 192.108L173.076 192.115L173.998 192.5ZM161.485 387.172C169.699 340.109 168.595 316.399 163.994 266.908L162.003 267.093C166.596 316.498 167.686 340.011 159.515 386.828L161.485 387.172ZM163.999 266.994C163.785 232.611 165.447 215.574 174.921 192.885L173.076 192.115C163.446 215.176 161.785 232.533 161.999 267.006L163.999 266.994ZM174.915 192.899C188.282 162.143 198.268 146.231 208.025 135.346C212.904 129.904 217.743 125.698 222.96 121.508C228.16 117.332 233.799 113.123 240.145 107.764L238.855 106.236C232.525 111.581 226.984 115.711 221.708 119.949C216.449 124.172 211.517 128.455 206.536 134.011C196.573 145.126 186.485 161.26 173.081 192.101L174.915 192.899Z" fill="black"/>
<g id="Rectangle 3" filter="url(#filter3_di_0_1)">
<path d="M154 344.5L149 328.5L143 311.5L137 297.5L130.5 276.5L125.5 253L123 229.5V218.5L124.5 207.5L127 197L129.5 188.5L134.5 173.5L141.5 158.5L154 128.5L160 113L165.5 96L169.5 82L172 68.5L174 47.5L172 31.5L168.5 12.5L174 24L180 41L183.5 60L184.5 75L184 89.5L182.5 101.5L177.5 126.5L172.5 143.5L167 159L158.5 189L154.5 208L152.5 223.5L151.5 243.5L155 267L159 283L164 298L171.5 322L175.5 339L174.5 361.5L173 373.5L170 385.5L158.5 386V375L158 364L154 344.5Z" fill="#3E7D50"/>
</g>
<path id="Line 2" d="M169.5 386.5C178.584 356.847 178.248 338.97 165.499 301.5C145.27 248.566 149.67 215.77 168.999 155C191.931 84.7922 188.858 51.8757 163.999 1.00002" stroke="black" stroke-width="2"/>
<path id="Line 1" d="M164.939 0.648888C164.748 0.130714 164.173 -0.134443 163.655 0.0566445C163.137 0.247732 162.872 0.822701 163.063 1.34088L164.939 0.648888ZM145.501 149.5L146.389 149.96L146.408 149.922L146.424 149.884L145.501 149.5ZM137.501 299.5L136.554 299.82L136.562 299.846L136.572 299.87L137.501 299.5ZM146.424 149.884C161.116 114.527 169.888 88.4241 172.911 65.5588C175.94 42.6502 173.194 23.0321 164.939 0.648888L163.063 1.34088C171.22 23.4598 173.909 42.7502 170.928 65.2966C167.942 87.8863 159.258 113.785 144.578 149.116L146.424 149.884ZM158.495 387.098C161.044 361.189 156.763 345.125 138.43 299.13L136.572 299.87C154.894 345.838 159.003 361.51 156.505 386.902L158.495 387.098ZM138.448 299.18C127.601 267.097 122.788 242.99 124.065 220.335C125.341 197.691 132.706 176.401 146.389 149.96L144.613 149.04C130.864 175.608 123.366 197.185 122.068 220.223C120.771 243.25 125.673 267.639 136.554 299.82L138.448 299.18Z" fill="black"/>
<g id="Rectangle 5" filter="url(#filter4_di_0_1)">
<path d="M210.5 329.5L206.5 316.5L201.5 304L186.5 277.5L182 261.5L182.5 247L185 237L189.5 227.5L198.5 212L209.5 195.5L222.5 179.5L235 158.5L246 138L253 116.5L256 100.5L256.5 87.5L255.5 77.5L254.5 65L251.5 49.5L252 43L258 61.5L264 89.5L266 106.5L265.5 125L261.5 146.5L257.5 161.5L249 178.5L239 194.5L230 211.5L223 223.5L217 240L215 248.5L213 260.5V270L213.5 279.5L216 295.5L221.5 313L228 331L231.5 342.5L233.5 355V366.5L231.5 379.5L223.5 380L216 379.5L215.5 365.5L214.5 354L213.5 342.5L210.5 329.5Z" fill="#3E7D50"/>
</g>
<path id="Line 5" d="M250.496 31.8447C250.437 31.2956 249.944 30.8983 249.395 30.9573C248.846 31.0163 248.449 31.5093 248.508 32.0584L250.496 31.8447ZM221.999 179L222.784 179.62L222.807 179.59L222.829 179.558L221.999 179ZM193.5 290L194.372 289.51L194.351 289.474L194.327 289.439L193.5 290ZM222.829 179.558C247.162 143.406 255.507 119.253 257.016 97.6592C257.77 86.8788 256.816 76.7781 255.34 66.2069C253.86 55.6069 251.867 44.6061 250.496 31.8447L248.508 32.0584C249.882 44.852 251.894 55.9922 253.359 66.4835C254.828 77.0036 255.76 86.9444 255.021 97.5198C253.545 118.638 245.392 142.454 221.17 178.442L222.829 179.558ZM216.502 380.96C216.687 359.781 215.327 344.325 211.823 330.443C208.317 316.557 202.678 304.3 194.372 289.51L192.628 290.49C200.892 305.204 206.438 317.287 209.884 330.933C213.33 344.583 214.686 359.851 214.502 380.943L216.502 380.96ZM194.327 289.439C188.394 280.693 184.785 272.585 183.286 264.587C181.787 256.597 182.383 248.661 184.937 240.241C190.064 223.341 203.055 204.556 222.784 179.62L221.215 178.38C201.512 203.282 188.276 222.346 183.023 239.66C180.388 248.347 179.755 256.61 181.32 264.955C182.883 273.292 186.629 281.655 192.672 290.561L194.327 289.439Z" fill="black"/>
<path id="Line 6" d="M250.464 31.7394C250.32 31.2062 249.771 30.8906 249.238 31.0346C248.705 31.1785 248.389 31.7274 248.533 32.2606L250.464 31.7394ZM255.499 166.5L256.378 166.978L256.415 166.908L256.442 166.833L255.499 166.5ZM221.498 311.5L222.438 311.159L222.438 311.157L221.498 311.5ZM256.442 166.833C266.749 137.671 268.638 116.349 266.233 96.0403C263.837 75.8069 257.164 56.5634 250.464 31.7394L248.533 32.2606C255.282 57.2668 261.873 76.2354 264.247 96.2755C266.611 116.24 264.775 137.253 254.556 166.167L256.442 166.833ZM232.47 380.743C238.848 355.27 233.003 340.263 222.438 311.159L220.558 311.841C231.142 340.998 236.74 355.453 230.53 380.257L232.47 380.743ZM222.438 311.157C211.004 279.825 212.206 257.264 219.846 235.856C223.678 225.119 229.137 214.649 235.486 203.474C241.819 192.327 249.066 180.43 256.378 166.978L254.62 166.023C247.314 179.466 240.126 191.258 233.747 202.486C227.383 213.687 221.854 224.278 217.962 235.183C210.156 257.059 208.975 280.102 220.559 311.843L222.438 311.157Z" fill="black"/>
<g id="Ellipse 1" filter="url(#filter5_di_0_1)">
<path d="M127 426C127.514 430.5 138.5 450.5 66.4995 446C37.5046 446 19.5 446 13.4997 420.5C10.4995 404.5 36.4997 391 62.4997 394.5C91.4946 394.5 125 408.5 127 426Z" fill="#A1B6BA"/>
<path d="M127 426C127.514 430.5 138.5 450.5 66.4995 446C37.5046 446 19.5 446 13.4997 420.5C10.4995 404.5 36.4997 391 62.4997 394.5C91.4946 394.5 125 408.5 127 426Z" stroke="black" stroke-width="2"/>
</g>
<g id="Ellipse 2" filter="url(#filter6_di_0_1)">
<path d="M303 418.5C306 450.5 259.5 443 207 446C120.5 446 111 444 111 418.5C113 381.5 150.5 390.5 207 381.5C262 372.739 303 403.312 303 418.5Z" fill="#596F75"/>
<path d="M303 418.5C306 450.5 259.5 443 207 446C120.5 446 111 444 111 418.5C113 381.5 150.5 390.5 207 381.5C262 372.739 303 403.312 303 418.5Z" stroke="black" stroke-width="2"/>
</g>
<defs>
<filter id="filter0_di_0_1" x="0" y="106.5" width="72" height="297" filterUnits="userSpaceOnUse" color-interpolation-filters="sRGB">
<feFlood flood-opacity="0" result="BackgroundImageFix"/>
<feColorMatrix in="SourceAlpha" type="matrix" values="0 0 0 0 0 0 0 0 0 0 0 0 0 0 0 0 0 0 127 0" result="hardAlpha"/>
<feOffset dy="4"/>
<feGaussianBlur stdDeviation="2"/>
<feComposite in2="hardAlpha" operator="out"/>
<feColorMatrix type="matrix" values="0 0 0 0 0 0 0 0 0 0 0 0 0 0 0 0 0 0 0.25 0"/>
<feBlend mode="normal" in2="BackgroundImageFix" result="effect1_dropShadow_0_1"/>
<feBlend mode="normal" in="SourceGraphic" in2="effect1_dropShadow_0_1" result="shape"/>
<feColorMatrix in="SourceAlpha" type="matrix" values="0 0 0 0 0 0 0 0 0 0 0 0 0 0 0 0 0 0 127 0" result="hardAlpha"/>
<feOffset dx="5" dy="4"/>
<feGaussianBlur stdDeviation="2"/>
<feComposite in2="hardAlpha" operator="arithmetic" k2="-1" k3="1"/>
<feColorMatrix type="matrix" values="0 0 0 0 0 0 0 0 0 0 0 0 0 0 0 0 0 0 0.25 0"/>
<feBlend mode="normal" in2="shape" result="effect2_innerShadow_0_1"/>
</filter>
<filter id="filter1_i_0_1" x="64" y="124" width="67.5" height="276" filterUnits="userSpaceOnUse" color-interpolation-filters="sRGB">
<feFlood flood-opacity="0" result="BackgroundImageFix"/>
<feBlend mode="normal" in="SourceGraphic" in2="BackgroundImageFix" result="shape"/>
<feColorMatrix in="SourceAlpha" type="matrix" values="0 0 0 0 0 0 0 0 0 0 0 0 0 0 0 0 0 0 127 0" result="hardAlpha"/>
<feOffset dx="5" dy="4"/>
<feGaussianBlur stdDeviation="2"/>
<feComposite in2="hardAlpha" operator="arithmetic" k2="-1" k3="1"/>
<feColorMatrix type="matrix" values="0 0 0 0 0 0 0 0 0 0 0 0 0 0 0 0 0 0 0.25 0"/>
<feBlend mode="normal" in2="shape" result="effect1_innerShadow_0_1"/>
</filter>
<filter id="filter2_di_0_1" x="156.5" y="110.5" width="84.5" height="283.5" filterUnits="userSpaceOnUse" color-interpolation-filters="sRGB">
<feFlood flood-opacity="0" result="BackgroundImageFix"/>
<feColorMatrix in="SourceAlpha" type="matrix" values="0 0 0 0 0 0 0 0 0 0 0 0 0 0 0 0 0 0 127 0" result="hardAlpha"/>
<feOffset dy="4"/>
<feGaussianBlur stdDeviation="2"/>
<feComposite in2="hardAlpha" operator="out"/>
<feColorMatrix type="matrix" values="0 0 0 0 0 0 0 0 0 0 0 0 0 0 0 0 0 0 0.25 0"/>
<feBlend mode="normal" in2="BackgroundImageFix" result="effect1_dropShadow_0_1"/>
<feBlend mode="normal" in="SourceGraphic" in2="effect1_dropShadow_0_1" result="shape"/>
<feColorMatrix in="SourceAlpha" type="matrix" values="0 0 0 0 0 0 0 0 0 0 0 0 0 0 0 0 0 0 127 0" result="hardAlpha"/>
<feOffset dx="5" dy="4"/>
<feGaussianBlur stdDeviation="2"/>
<feComposite in2="hardAlpha" operator="arithmetic" k2="-1" k3="1"/>
<feColorMatrix type="matrix" values="0 0 0 0 0 0 0 0 0 0 0 0 0 0 0 0 0 0 0.25 0"/>
<feBlend mode="normal" in2="shape" result="effect2_innerShadow_0_1"/>
</filter>
<filter id="filter3_di_0_1" x="119" y="12.5" width="69.5" height="381.5" filterUnits="userSpaceOnUse" color-interpolation-filters="sRGB">
<feFlood flood-opacity="0" result="BackgroundImageFix"/>
<feColorMatrix in="SourceAlpha" type="matrix" values="0 0 0 0 0 0 0 0 0 0 0 0 0 0 0 0 0 0 127 0" result="hardAlpha"/>
<feOffset dy="4"/>
<feGaussianBlur stdDeviation="2"/>
<feComposite in2="hardAlpha" operator="out"/>
<feColorMatrix type="matrix" values="0 0 0 0 0 0 0 0 0 0 0 0 0 0 0 0 0 0 0.25 0"/>
<feBlend mode="normal" in2="BackgroundImageFix" result="effect1_dropShadow_0_1"/>
<feBlend mode="normal" in="SourceGraphic" in2="effect1_dropShadow_0_1" result="shape"/>
<feColorMatrix in="SourceAlpha" type="matrix" values="0 0 0 0 0 0 0 0 0 0 0 0 0 0 0 0 0 0 127 0" result="hardAlpha"/>
<feOffset dx="5" dy="4"/>
<feGaussianBlur stdDeviation="2"/>
<feComposite in2="hardAlpha" operator="arithmetic" k2="-1" k3="1"/>
<feColorMatrix type="matrix" values="0 0 0 0 0 0 0 0 0 0 0 0 0 0 0 0 0 0 0.25 0"/>
<feBlend mode="normal" in2="shape" result="effect2_innerShadow_0_1"/>
</filter>
<filter id="filter4_di_0_1" x="178" y="43" width="92" height="345" filterUnits="userSpaceOnUse" color-interpolation-filters="sRGB">
<feFlood flood-opacity="0" result="BackgroundImageFix"/>
<feColorMatrix in="SourceAlpha" type="matrix" values="0 0 0 0 0 0 0 0 0 0 0 0 0 0 0 0 0 0 127 0" result="hardAlpha"/>
<feOffset dy="4"/>
<feGaussianBlur stdDeviation="2"/>
<feComposite in2="hardAlpha" operator="out"/>
<feColorMatrix type="matrix" values="0 0 0 0 0 0 0 0 0 0 0 0 0 0 0 0 0 0 0.25 0"/>
<feBlend mode="normal" in2="BackgroundImageFix" result="effect1_dropShadow_0_1"/>
<feBlend mode="normal" in="SourceGraphic" in2="effect1_dropShadow_0_1" result="shape"/>
<feColorMatrix in="SourceAlpha" type="matrix" values="0 0 0 0 0 0 0 0 0 0 0 0 0 0 0 0 0 0 127 0" result="hardAlpha"/>
<feOffset dx="5" dy="4"/>
<feGaussianBlur stdDeviation="2"/>
<feComposite in2="hardAlpha" operator="arithmetic" k2="-1" k3="1"/>
<feColorMatrix type="matrix" values="0 0 0 0 0 0 0 0 0 0 0 0 0 0 0 0 0 0 0.25 0"/>
<feBlend mode="normal" in2="shape" result="effect2_innerShadow_0_1"/>
</filter>
<filter id="filter5_di_0_1" x="12.2607" y="392.943" width="125.629" height="62.7124" filterUnits="userSpaceOnUse" color-interpolation-filters="sRGB">
<feFlood flood-opacity="0" result="BackgroundImageFix"/>
<feColorMatrix in="SourceAlpha" type="matrix" values="0 0 0 0 0 0 0 0 0 0 0 0 0 0 0 0 0 0 127 0" result="hardAlpha"/>
<feOffset dx="5" dy="4"/>
<feGaussianBlur stdDeviation="2"/>
<feComposite in2="hardAlpha" operator="out"/>
<feColorMatrix type="matrix" values="0 0 0 0 0 0 0 0 0 0 0 0 0 0 0 0 0 0 0.25 0"/>
<feBlend mode="normal" in2="BackgroundImageFix" result="effect1_dropShadow_0_1"/>
<feBlend mode="normal" in="SourceGraphic" in2="effect1_dropShadow_0_1" result="shape"/>
<feColorMatrix in="SourceAlpha" type="matrix" values="0 0 0 0 0 0 0 0 0 0 0 0 0 0 0 0 0 0 127 0" result="hardAlpha"/>
<feOffset dx="20" dy="4"/>
<feGaussianBlur stdDeviation="2"/>
<feComposite in2="hardAlpha" operator="arithmetic" k2="-1" k3="1"/>
<feColorMatrix type="matrix" values="0 0 0 0 0 0 0 0 0 0 0 0 0 0 0 0 0 0 0.3 0"/>
<feBlend mode="normal" in2="shape" result="effect2_innerShadow_0_1"/>
</filter>
<filter id="filter6_di_0_1" x="110" y="378.95" width="203.137" height="76.0496" filterUnits="userSpaceOnUse" color-interpolation-filters="sRGB">
<feFlood flood-opacity="0" result="BackgroundImageFix"/>
<feColorMatrix in="SourceAlpha" type="matrix" values="0 0 0 0 0 0 0 0 0 0 0 0 0 0 0 0 0 0 127 0" result="hardAlpha"/>
<feOffset dx="5" dy="4"/>
<feGaussianBlur stdDeviation="2"/>
<feComposite in2="hardAlpha" operator="out"/>
<feColorMatrix type="matrix" values="0 0 0 0 0 0 0 0 0 0 0 0 0 0 0 0 0 0 0.25 0"/>
<feBlend mode="normal" in2="BackgroundImageFix" result="effect1_dropShadow_0_1"/>
<feBlend mode="normal" in="SourceGraphic" in2="effect1_dropShadow_0_1" result="shape"/>
<feColorMatrix in="SourceAlpha" type="matrix" values="0 0 0 0 0 0 0 0 0 0 0 0 0 0 0 0 0 0 127 0" result="hardAlpha"/>
<feOffset dx="30" dy="4"/>
<feGaussianBlur stdDeviation="2"/>
<feComposite in2="hardAlpha" operator="arithmetic" k2="-1" k3="1"/>
<feColorMatrix type="matrix" values="0 0 0 0 0 0 0 0 0 0 0 0 0 0 0 0 0 0 0.25 0"/>
<feBlend mode="normal" in2="shape" result="effect2_innerShadow_0_1"/>
</filter>
</defs>
</svg>
