<svg width="76" height="33" viewBox="0 0 76 33" fill="none" xmlns="http://www.w3.org/2000/svg">
<path d="M41.375 0.33964C40.3321 0.362843 39.2893 0.386046 38.2148 0.409952C31.056 0.695949 25.4572 2.1565 19 5.21464C18.0603 5.61167 17.1205 6.0087 16.1523 6.41777C9.82413 9.40888 5.00201 13.3455 0 18.2146C0.191406 20.0467 0.191406 20.0467 1 22.2146C6.77202 26.1011 12.809 27.5547 19.6484 27.9021C22.9415 28.3398 25.3731 29.7494 28.2383 31.3592C30.5531 32.4832 32.4693 32.531 35 32.2146C34.67 30.2346 34.34 28.2546 34 26.2146C42.6229 27.3309 42.6229 27.3309 51.0625 29.3396C54 30.2146 54 30.2146 58 30.2146C58 29.5546 58 28.8946 58 28.2146C55 26.2146 55 26.2146 52 26.2146C52.668 23.0584 52.668 23.0584 55.25 22.0271C58.0457 21.2011 60.107 20.9019 63 21.2146C63.66 21.8746 64.32 22.5346 65 23.2146C67.9479 24.5335 70.8492 25.5145 74 26.2146C72.9412 22.8115 71.991 20.2011 70 17.2146C69.5405 13.1082 69.5405 13.1082 72.4375 10.6521C73.2831 9.84776 74.1288 9.04339 75 8.21464C75.33 7.22464 75.66 6.23464 76 5.21464C75.3813 5.50339 74.7625 5.79214 74.125 6.08964C69.8413 7.63176 65.4707 8.39863 61 9.21464C60.67 8.22464 60.34 7.23464 60 6.21464C59.34 6.21464 58.68 6.21464 58 6.21464C57.9175 5.59589 57.835 4.97714 57.75 4.33964C57 2.21464 57 2.21464 55.2837 1.08915C50.8411 -0.612092 46.057 0.135829 41.375 0.33964Z" fill="#0A0A0A"/>
</svg>
