<svg width="153" height="58" viewBox="0 0 153 58" fill="none" xmlns="http://www.w3.org/2000/svg">
<path d="M73 0C79.5317 0.747466 83.0278 5.06434 87 10C87.7178 11.6664 88.3867 13.3549 89 15.0625C92.1557 22.3013 100.182 24.5318 107.065 27.3108C110.444 28.5143 113.538 29.1258 117.126 29.2053C118.327 29.2352 118.327 29.2352 119.552 29.2658C120.833 29.2908 120.833 29.2908 122.141 29.3164C123.023 29.3372 123.905 29.358 124.814 29.3794C127.626 29.4446 130.438 29.5037 133.25 29.5625C135.159 29.6057 137.068 29.6493 138.977 29.6934C143.651 29.8003 148.325 29.9016 153 30C153 30.33 153 30.66 153 31C145.237 32.1411 137.506 32.296 129.668 32.4297C123.914 32.603 120.055 33.057 115 36C111.618 37.3066 108.183 38.4577 104.75 39.625C102.953 40.2411 101.156 40.8582 99.3594 41.4766C98.5701 41.7455 97.7809 42.0144 96.9678 42.2915C94.9611 42.9704 94.9611 42.9704 93 44C92.67 44.99 92.34 45.98 92 47C90.35 46.67 88.7 46.34 87 46C86.7525 46.5569 86.505 47.1137 86.25 47.6875C84.1584 51.557 81.3369 55.1181 78 58C77.34 58 76.68 58 76 58C76.514 55.3271 77.3089 53.3945 78.5625 50.9375C80.2198 48.096 80.2198 48.096 80 45C64.4051 41.6998 64.4051 41.6998 49.3438 44.3438C47.4029 45.7926 45.6739 47.2533 44 49C42.5217 46.0434 42.9397 43.2577 43 40C37.6356 37.3178 33.9899 36.6847 28 37C27.67 36.01 27.34 35.02 27 34C24.302 33.2424 24.302 33.2424 21 34C19.3427 35.7862 19.3427 35.7862 17.8125 38.0625C13.8943 43.6147 9.00128 46.9048 3 50C2.34 50 1.68 50 1 50C2.13536 47.5401 3.3939 45.4282 4.9375 43.1875C8.20249 38.1416 10.716 33.3475 10.4883 27.1758C9.45876 22.5882 6.61805 18.8313 4 15C3.57461 14.3503 3.14922 13.7006 2.71094 13.0312C1.82304 11.677 0.914411 10.3364 0 9C5.96535 9.29099 9.0513 11.8185 13 16C14.2047 17.5913 15.392 19.1959 16.5625 20.8125C19.2276 24.4274 19.2276 24.4274 23.4375 26.0625C24.7059 26.0316 24.7059 26.0316 26 26C26.33 25.01 26.66 24.02 27 23C28.0248 23.0116 29.0496 23.0232 30.1055 23.0352C31.4661 23.0445 32.8268 23.0536 34.1875 23.0625C34.861 23.0709 35.5346 23.0793 36.2285 23.0879C39.9816 23.1062 43.3404 22.7581 47 22C49.6474 21.8497 52.2885 21.7276 54.9375 21.625C62.8808 21.2522 70.276 19.9463 78 18C77.567 11.1801 76.0921 6.08357 73 0Z" fill="#0A0A0A"/>
</svg>
