<svg width="86" height="49" viewBox="0 0 86 49" fill="none" xmlns="http://www.w3.org/2000/svg">
<path d="M71.75 6.05818C84.3985 15.3199 84.3985 15.3199 86 20.3082C85.886 26.3881 83.8649 29.6207 80 33.9957C79.5016 34.5673 79.0032 35.1389 78.4897 35.7279C74.4452 40.1774 70.8165 42.6463 65 44.3082C63.9198 44.6846 62.8395 45.061 61.7266 45.4488C51.9745 48.736 51.9745 48.736 47 47.3082C47 46.6482 47 45.9882 47 45.3082C47.66 45.3082 48.32 45.3082 49 45.3082C49 44.6482 49 43.9882 49 43.3082C35.4712 43.9558 35.4712 43.9558 22 45.3082C22.5468 40.7518 23.2729 36.575 25 32.3082C25.66 31.9782 26.32 31.6482 27 31.3082C20.3066 30.6646 15.8808 32.3605 9.83203 35.2144C6.97525 36.3177 5.02711 36.5295 2 36.3082C2.10699 35.5721 2.21398 34.8361 2.32422 34.0777C3.29627 26.7351 3.29627 26.7351 0 20.3082C0 18.9882 0 17.6682 0 16.3082C1.41656 16.2809 2.83327 16.2617 4.25 16.2457C5.43336 16.2283 5.43336 16.2283 6.64062 16.2105C8.92214 16.305 10.7951 16.757 13 17.3082C14.5821 17.3737 16.1667 17.394 17.75 17.3707C19.1525 17.3501 20.555 17.3294 22 17.3082C20.68 13.0182 19.36 8.72818 18 4.30818C20.1519 2.15628 24.6956 2.60808 27.6875 2.30818C33.9769 1.67167 33.9769 1.67167 40.2305 0.761308C50.9727 -0.996234 62.4598 0.0984478 71.75 6.05818Z" fill="#0A0A0A"/>
</svg>
