<svg width="153" height="58" viewBox="0 0 153 58" fill="none" xmlns="http://www.w3.org/2000/svg">
<path d="M80 0C73.4683 0.747466 69.9722 5.06434 66 10C65.2822 11.6664 64.6133 13.3549 64 15.0625C60.8443 22.3013 52.8176 24.5318 45.9353 27.3108C42.5558 28.5143 39.4618 29.1258 35.874 29.2053C34.6732 29.2352 34.6732 29.2352 33.4482 29.2658C32.1667 29.2908 32.1667 29.2908 30.8594 29.3164C29.9772 29.3372 29.095 29.358 28.1861 29.3794C25.3741 29.4446 22.5621 29.5037 19.75 29.5625C17.8411 29.6057 15.9323 29.6493 14.0234 29.6934C9.34904 29.8003 4.67458 29.9016 0 30C0 30.33 0 30.66 0 31C7.76303 32.1411 15.4944 32.296 23.332 32.4297C29.0863 32.603 32.9451 33.057 38 36C41.3822 37.3066 44.8175 38.4577 48.25 39.625C50.0473 40.2411 51.8442 40.8582 53.6406 41.4766C54.4299 41.7455 55.2191 42.0144 56.0322 42.2915C58.0389 42.9704 58.0389 42.9704 60 44C60.33 44.99 60.66 45.98 61 47C62.65 46.67 64.3 46.34 66 46C66.2475 46.5569 66.495 47.1138 66.75 47.6875C68.8416 51.557 71.6631 55.1181 75 58C75.66 58 76.32 58 77 58C76.486 55.3271 75.6911 53.3945 74.4375 50.9375C72.7802 48.096 72.7802 48.096 73 45C88.5949 41.6998 88.5949 41.6998 103.656 44.3438C105.597 45.7925 107.326 47.2533 109 49C110.478 46.0434 110.06 43.2577 110 40C115.364 37.3178 119.01 36.6847 125 37C125.33 36.01 125.66 35.02 126 34C128.698 33.2424 128.698 33.2424 132 34C133.657 35.7862 133.657 35.7862 135.188 38.0625C139.106 43.6147 143.999 46.9048 150 50C150.66 50 151.32 50 152 50C150.865 47.5401 149.606 45.4282 148.062 43.1875C144.798 38.1416 142.284 33.3475 142.512 27.1758C143.541 22.5882 146.382 18.8313 149 15C149.425 14.3503 149.851 13.7006 150.289 13.0312C151.177 11.677 152.086 10.3364 153 9C147.035 9.29099 143.949 11.8185 140 16C138.795 17.5913 137.608 19.1959 136.438 20.8125C133.772 24.4274 133.772 24.4274 129.562 26.0625C128.294 26.0316 128.294 26.0316 127 26C126.67 25.01 126.34 24.02 126 23C124.975 23.0116 123.95 23.0232 122.895 23.0352C121.534 23.0445 120.173 23.0536 118.812 23.0625C118.139 23.0709 117.465 23.0793 116.771 23.0879C113.018 23.1062 109.66 22.7581 106 22C103.353 21.8497 100.711 21.7276 98.0625 21.625C90.1192 21.2522 82.724 19.9463 75 18C75.433 11.1801 76.9079 6.08357 80 0Z" fill="#0A0A0A"/>
</svg>
