<svg width="453" height="287" viewBox="0 0 453 287" fill="none" xmlns="http://www.w3.org/2000/svg">
<path d="M200.213 0.885284C211.501 0.31111 222.306 1.40402 233.438 3.25003C234.681 3.45451 235.925 3.65899 237.206 3.86966C250.187 6.1576 262.09 10.2059 274.188 15.375C275.285 15.8314 276.383 16.2877 277.514 16.7578C286.704 20.6552 295.438 24.8106 302.438 32.0625C303.642 33.2865 303.642 33.2865 304.871 34.5352C308.095 38.2684 310.12 41.8401 311.5 46.5625C312.572 49.9524 313.77 52.2131 316 55C317.02 57.3248 318.021 59.658 319 62C319.66 62.99 320.32 63.98 321 65C320.938 66.2066 320.938 66.2066 320.875 67.4375C320.717 70.095 320.717 70.095 322.688 71.6875C325.536 74.5363 326.795 77.4803 328.512 81.0938C330.178 84.3469 332.089 87.3619 334.062 90.4375C340.472 100.809 343.352 109.657 342 122C341.37 123.351 340.71 124.689 340 126C347.724 126.39 354.006 125.522 361.312 123.063C363.319 122.418 365.325 121.775 367.332 121.133C368.399 120.788 369.466 120.443 370.565 120.087C374.242 118.924 377.935 117.823 381.637 116.742C399.255 111.629 399.255 111.629 416.383 105.094C420.435 103.4 423.984 102.785 428.375 102.625C429.29 102.576 430.205 102.527 431.148 102.477C435.083 103.199 437.442 105.047 440 108C441.689 110.683 442.982 113.473 444.25 116.375C444.588 117.105 444.925 117.834 445.273 118.586C451.578 132.485 452.475 147.069 451.938 162.125C451.905 163.124 451.905 163.124 451.871 164.143C450.997 188.692 444.747 208.777 428 227C416.558 224.006 408.559 220.126 400.355 211.465C398.374 209.391 396.379 207.53 394.188 205.688C390.48 202.525 387.099 199.098 383.688 195.625C378.111 189.981 372.319 184.815 366 180C365.18 179.375 364.36 178.75 363.516 178.105C357.376 173.618 350.875 170.225 344 167C344.471 167.564 344.942 168.129 345.427 168.71C347.088 171.129 347.622 172.775 348.168 175.633C348.339 176.522 348.51 177.412 348.686 178.328C348.934 179.713 348.934 179.713 349.188 181.125C349.365 182.025 349.542 182.925 349.725 183.852C352.078 196.502 350.574 205.97 346.121 217.844C345.102 220.712 344.205 223.596 343.342 226.514C337.658 245.579 330.366 267.221 312.625 278.063C308.399 280.035 303.958 281.348 299.5 282.688C298.432 283.01 298.432 283.01 297.342 283.338C263.818 292.985 228.508 277.544 198.602 263.57C197.666 263.134 197.666 263.134 196.712 262.688C193.673 261.265 190.641 259.83 187.615 258.379C176.31 253.013 166.18 250.58 153.801 249.352C126.793 246.61 104.782 240.048 83 223C79.0091 220.028 74.9921 217.092 70.9771 214.153C64.0524 209.074 64.0524 209.074 60.8594 206.496C48.4107 196.675 34.7931 195.304 19.4592 193.987C18.2816 193.884 17.104 193.782 15.8906 193.676C14.8288 193.592 13.7669 193.509 12.6729 193.423C10 193 10 193 7 191C6.59156 188.288 6.86663 185.756 7 183C5.82438 182.629 5.82438 182.629 4.625 182.25C1.60835 180.814 1.28434 179.953 0 177C4.77665 169.284 10.1305 163.437 17 157.563C27.8334 148.086 35.6726 135.885 37.4492 121.316C37.8716 114.662 38.0207 108.578 37 102C36.4611 95.1618 37.0177 89.7822 41.4436 84.1692C45.6498 79.35 50.123 75.0238 54.875 70.75C61.5356 64.6292 66.8155 58.426 72 51C93.9291 21.464 116.91 10.5184 153 5.00003C167.2 3.02636 181.516 1.51045 195.853 1.07181C197.307 1.0232 198.761 0.960601 200.213 0.885284Z" fill="#0A0A0A" fill-opacity="0.85"/>
</svg>
