<svg width="76" height="33" viewBox="0 0 76 33" fill="none" xmlns="http://www.w3.org/2000/svg">
<path d="M34.625 0.33964C35.6679 0.362843 36.7107 0.386046 37.7852 0.409952C44.944 0.695949 50.5428 2.1565 57 5.21464C57.9397 5.61167 58.8795 6.0087 59.8477 6.41777C66.1759 9.40888 70.998 13.3455 76 18.2146C75.8086 20.0467 75.8086 20.0467 75 22.2146C69.228 26.1011 63.191 27.5547 56.3516 27.9021C53.0585 28.3398 50.6269 29.7494 47.7617 31.3592C45.4469 32.4832 43.5307 32.531 41 32.2146C41.33 30.2346 41.66 28.2546 42 26.2146C33.3771 27.3308 33.3771 27.3308 24.9375 29.3396C22 30.2146 22 30.2146 18 30.2146C18 29.5546 18 28.8946 18 28.2146C21 26.2146 21 26.2146 24 26.2146C23.332 23.0584 23.332 23.0584 20.75 22.0271C17.9543 21.2011 15.893 20.9019 13 21.2146C12.34 21.8746 11.68 22.5346 11 23.2146C8.05206 24.5335 5.15085 25.5145 2 26.2146C3.05875 22.8115 4.00902 20.2011 6 17.2146C6.45948 13.1082 6.45948 13.1082 3.5625 10.6521C2.71688 9.84776 1.87125 9.04339 1 8.21464C0.67 7.22464 0.34 6.23464 0 5.21464C0.61875 5.50339 1.2375 5.79214 1.875 6.08964C6.15866 7.63176 10.5293 8.39863 15 9.21464C15.33 8.22464 15.66 7.23464 16 6.21464C16.66 6.21464 17.32 6.21464 18 6.21464C18.0825 5.59589 18.165 4.97714 18.25 4.33964C19 2.21464 19 2.21464 20.7163 1.08915C25.1589 -0.612092 29.943 0.135829 34.625 0.33964Z" fill="#0A0A0A"/>
</svg>
