<svg width="63" height="74" viewBox="0 0 63 74" fill="none" xmlns="http://www.w3.org/2000/svg">
<path d="M10 0C13.0933 1.02797 16.1839 2.06261 19.2695 3.11328C20.4387 3.50902 21.6079 3.90477 22.8125 4.3125C23.7728 4.63843 23.7728 4.63843 24.7524 4.97095C28.2929 6.15552 31.8373 7.25128 35.4414 8.22656C46.6648 11.2694 54.8493 14.5157 62.1016 24.0703C63 26 63 26 62.918 27.9375C61.654 30.7774 59.8268 32.6271 57.6875 34.875C54.3821 38.4331 51.5111 41.8511 49 46C47.68 45.67 46.36 45.34 45 45C45 46.65 45 48.3 45 50C44.01 50.495 44.01 50.495 43 51C42.67 49.35 42.34 47.7 42 46C29.9133 51.6368 19.7163 62.6969 13 74C11.557 71.1139 12.5321 69.5268 13.375 66.4375C14.7086 61.0128 15.2939 55.9248 15.5 50.375C15.7598 43.578 16.7774 37.4722 19 31C15.0798 34.363 11.2123 37.717 7.625 41.4375C5 44 5 44 3 44C0.88564 33.7156 0.415737 23.4591 0 13C5.31455 13.5151 8.90623 15.3616 13.375 18.0625C14.0157 18.4396 14.6563 18.8166 15.3164 19.2051C16.8825 20.1284 18.442 21.0631 20 22C19.5108 20.9501 19.5108 20.9501 19.0117 19.8789C17.9027 16.7232 17.8336 14.2683 17.8125 10.9375C17.6592 6.68963 17.6592 6.68963 15.3828 3.33203C13.2534 2.08046 13.2534 2.08046 10 1C10 0.67 10 0.34 10 0Z" fill="#0A0A0A"/>
</svg>
