<svg width="453" height="287" viewBox="0 0 453 287" fill="none" xmlns="http://www.w3.org/2000/svg">
<path d="M251.856 0.885284C240.569 0.31111 229.763 1.40402 218.632 3.25003C217.388 3.45451 216.145 3.65899 214.863 3.86966C201.883 6.1576 189.979 10.2059 177.882 15.375C176.784 15.8314 175.687 16.2877 174.556 16.7578C165.365 20.6552 156.631 24.8106 149.632 32.0625C148.427 33.2865 148.427 33.2865 147.198 34.5352C143.974 38.2684 141.949 41.8401 140.569 46.5625C139.497 49.9524 138.299 52.2131 136.069 55C135.05 57.3248 134.049 59.658 133.069 62C132.409 62.99 131.749 63.98 131.069 65C131.131 66.2066 131.131 66.2066 131.194 67.4375C131.352 70.095 131.352 70.095 129.382 71.6875C126.533 74.5363 125.274 77.4803 123.558 81.0938C121.892 84.3469 119.98 87.3619 118.007 90.4375C111.597 100.809 108.717 109.657 110.069 122C110.699 123.351 111.36 124.689 112.069 126C104.345 126.39 98.063 125.522 90.7568 123.063C88.7508 122.418 86.7443 121.775 84.7373 121.133C83.6704 120.788 82.6036 120.443 81.5044 120.087C77.8275 118.924 74.1344 117.823 70.4326 116.742C52.8139 111.629 52.8139 111.629 35.6865 105.094C31.634 103.4 28.0852 102.785 23.6943 102.625C22.7791 102.576 21.8639 102.527 20.9209 102.477C16.9861 103.199 14.6276 105.047 12.0693 108C10.3804 110.683 9.08767 113.473 7.81934 116.375C7.4816 117.105 7.14387 117.834 6.7959 118.586C0.491739 132.485 -0.405915 147.069 0.131836 162.125C0.164752 163.124 0.164752 163.124 0.198334 164.143C1.07266 188.692 7.32219 208.777 24.0693 227C35.5115 224.006 43.5102 220.126 51.7139 211.465C53.6955 209.391 55.6903 207.53 57.8818 205.688C61.5898 202.525 64.9704 199.098 68.3818 195.625C73.958 189.981 79.7503 184.815 86.0693 180C86.8892 179.375 87.709 178.75 88.5537 178.105C94.693 173.618 101.194 170.225 108.069 167C107.598 167.564 107.128 168.129 106.642 168.71C104.981 171.129 104.447 172.775 103.901 175.633C103.731 176.522 103.56 177.412 103.384 178.328C103.135 179.713 103.135 179.713 102.882 181.125C102.705 182.025 102.527 182.925 102.345 183.852C99.991 196.502 101.496 205.97 105.948 217.844C106.967 220.712 107.864 223.596 108.727 226.514C114.411 245.579 121.703 267.221 139.444 278.063C143.67 280.035 148.112 281.348 152.569 282.688C153.637 283.01 153.637 283.01 154.727 283.338C188.251 292.985 223.561 277.544 253.468 263.57C254.403 263.134 254.403 263.134 255.357 262.688C258.396 261.265 261.428 259.83 264.454 258.379C275.76 253.013 285.889 250.58 298.268 249.352C325.277 246.61 347.287 240.048 369.069 223C373.06 220.028 377.077 217.092 381.092 214.153C388.017 209.074 388.017 209.074 391.21 206.496C403.659 196.675 417.276 195.304 432.61 193.987C433.788 193.884 434.965 193.782 436.179 193.676C437.241 193.592 438.302 193.509 439.396 193.423C442.069 193 442.069 193 445.069 191C445.478 188.288 445.203 185.756 445.069 183C446.245 182.629 446.245 182.629 447.444 182.25C450.461 180.814 450.785 179.953 452.069 177C447.293 169.284 441.939 163.437 435.069 157.563C424.236 148.086 416.397 135.885 414.62 121.316C414.198 114.662 414.049 108.578 415.069 102C415.608 95.1618 415.052 89.7822 410.626 84.1692C406.42 79.35 401.946 75.0238 397.194 70.75C390.534 64.6291 385.254 58.426 380.069 51C358.14 21.464 335.159 10.5184 299.069 5.00003C284.869 3.02636 270.553 1.51045 256.216 1.07181C254.762 1.0232 253.309 0.960601 251.856 0.885284Z" fill="#0A0A0A" fill-opacity="0.85"/>
</svg>
