<svg width="111" height="51" viewBox="0 0 111 51" fill="none" xmlns="http://www.w3.org/2000/svg">
<path d="M52 0C56.2242 2.24888 59.0231 4.99008 62.25 8.5C66.8214 13.2426 70.524 15.7563 77 17C86.5284 19.0146 94.5163 22.2705 103 27C104.208 27.671 104.208 27.671 105.441 28.3555C107.375 29.5625 107.375 29.5625 110 32C110.438 35.3125 110.438 35.3125 110 38C105.405 40.153 100.781 40.813 95.8125 41.5625C94.1936 41.8109 92.575 42.0621 90.957 42.3164C90.2452 42.4241 89.5334 42.5318 88.8 42.6428C86.908 42.9358 86.908 42.9358 85 44C83.1974 44.075 81.3945 44.1461 79.5908 44.1895C72.755 44.3817 67.5925 44.8563 61.7969 48.8438C59.871 50.083 58.2348 50.5649 56 51C53.497 48.0617 52.5307 45.821 52 42C46.5954 41.5496 43.4927 42.4202 38.7969 45.125C37 46 37 46 34 46C34.495 41.05 34.495 41.05 35 36C25.8101 37.3514 18.74 40.8881 10.6367 45.2812C6.94956 47.2255 4.21488 48.5269 0 48C0.44433 43.6274 3.05329 41.8361 6.25 39.0625C9.96833 35.8115 13.5448 32.5245 17 29C16.3052 28.7705 15.6104 28.5411 14.8945 28.3047C11.3896 26.7248 8.61626 24.5662 5.6875 22.125C5.13771 21.6906 4.58793 21.2562 4.02148 20.8086C2.44922 19.5078 2.44922 19.5078 0 17C0 15.68 0 14.36 0 13C3.17499 13.663 5.76023 14.7907 8.63281 16.2852C9.96699 16.9571 9.96699 16.9571 11.3281 17.6426C13.1757 18.5806 15.017 19.5309 16.8516 20.4941C26.0968 25.0968 33.6932 24.7807 43.5 22.1875C44.2013 22.0219 44.9025 21.8562 45.625 21.6855C50.0949 20.5544 50.0949 20.5544 53 17C53.5865 11.3138 52.9754 5.60852 52 0Z" fill="#0A0A0A"/>
</svg>
