<svg width="78" height="48" viewBox="0 0 78 48" fill="none" xmlns="http://www.w3.org/2000/svg">
<path d="M55.4106 2.12759C56.2975 2.97322 57.1843 3.81884 58.0981 4.69009C58.8264 5.36943 59.5547 6.04876 60.3051 6.74869C63.696 9.99717 66.6921 13.0753 69.2856 17.0026C71.5262 20.325 73.6754 21.6676 77.0981 23.6901C76.8676 25.6002 76.8676 25.6002 76.0981 27.6901C73.9098 28.6799 71.7561 29.1346 69.4223 29.6862C66.9037 30.5453 66.9037 30.5453 65.3481 33.0299C62.2481 36.6951 58.78 37.9984 54.4106 39.8151C53.6455 40.149 52.8805 40.4828 52.0922 40.8268C32.8545 49.0924 32.8545 49.0924 23.2856 45.6901C20.161 42.8333 17.8413 39.5549 16.0981 35.6901C16.0981 34.3701 16.0981 33.0501 16.0981 31.6901C11.7744 33.7164 11.7744 33.7164 8.09808 36.6901C5.47308 36.8151 5.47308 36.8151 3.09808 36.6901C0.506557 30.7512 -0.3056 26.149 0.0980831 19.6901C1.88324 19.0377 1.88324 19.0377 4.09808 18.6901C5.84418 19.6862 5.84418 19.6862 7.53558 21.1276C10.4729 23.6288 12.2481 23.9608 16.0981 23.6901C16.3894 22.8329 16.6807 21.9756 16.9809 21.0924C21.8993 7.37348 21.8993 7.37348 27.0981 3.69009C35.3383 -0.126886 46.9928 -1.52541 55.4106 2.12759Z" fill="#0A0A0A"/>
</svg>
