<svg width="1600" height="1194" viewBox="0 0 1600 1194" fill="none" xmlns="http://www.w3.org/2000/svg">
<path d="M1223.21 872.885C1234.5 872.311 1245.31 873.404 1256.44 875.25C1257.68 875.455 1258.92 875.659 1260.21 875.87C1273.19 878.158 1285.09 882.206 1297.19 887.375C1298.29 887.831 1299.38 888.288 1300.51 888.758C1309.7 892.655 1318.44 896.811 1325.44 904.063C1326.64 905.286 1326.64 905.286 1327.87 906.535C1331.1 910.268 1333.12 913.84 1334.5 918.563C1335.57 921.952 1336.77 924.213 1339 927C1340.02 929.325 1341.02 931.658 1342 934C1342.66 934.99 1343.32 935.98 1344 937C1343.94 938.207 1343.94 938.207 1343.88 939.438C1343.72 942.095 1343.72 942.095 1345.69 943.688C1348.54 946.536 1349.8 949.48 1351.51 953.094C1353.18 956.347 1355.09 959.362 1357.06 962.438C1363.47 972.809 1366.35 981.657 1365 994C1364.37 995.351 1363.71 996.689 1363 998C1370.72 998.39 1377.01 997.522 1384.31 995.063C1386.32 994.418 1388.33 993.775 1390.33 993.133C1391.4 992.788 1392.47 992.443 1393.56 992.087C1397.24 990.924 1400.93 989.823 1404.64 988.742C1422.26 983.629 1422.26 983.629 1439.38 977.094C1443.44 975.4 1446.98 974.785 1451.38 974.625C1452.29 974.576 1453.21 974.527 1454.15 974.477C1458.08 975.199 1460.44 977.047 1463 980C1464.69 982.683 1465.98 985.473 1467.25 988.375C1467.59 989.105 1467.93 989.834 1468.27 990.586C1474.58 1004.48 1475.48 1019.07 1474.94 1034.13C1474.9 1035.12 1474.9 1035.12 1474.87 1036.14C1474 1060.69 1467.75 1080.78 1451 1099C1439.56 1096.01 1431.56 1092.13 1423.36 1083.46C1421.37 1081.39 1419.38 1079.53 1417.19 1077.69C1413.48 1074.53 1410.1 1071.1 1406.69 1067.63C1401.11 1061.98 1395.32 1056.81 1389 1052C1388.18 1051.37 1387.36 1050.75 1386.52 1050.11C1380.38 1045.62 1373.88 1042.23 1367 1039C1367.47 1039.56 1367.94 1040.13 1368.43 1040.71C1370.09 1043.13 1370.62 1044.77 1371.17 1047.63C1371.34 1048.52 1371.51 1049.41 1371.69 1050.33C1371.93 1051.71 1371.93 1051.71 1372.19 1053.13C1372.36 1054.02 1372.54 1054.92 1372.72 1055.85C1375.08 1068.5 1373.57 1077.97 1369.12 1089.84C1368.1 1092.71 1367.21 1095.6 1366.34 1098.51C1360.66 1117.58 1353.37 1139.22 1335.62 1150.06C1331.4 1152.03 1326.96 1153.35 1322.5 1154.69C1321.43 1155.01 1321.43 1155.01 1320.34 1155.34C1286.82 1164.99 1251.51 1149.54 1221.6 1135.57C1220.67 1135.13 1220.67 1135.13 1219.71 1134.69C1216.67 1133.27 1213.64 1131.83 1210.62 1130.38C1199.31 1125.01 1189.18 1122.58 1176.8 1121.35C1149.79 1118.61 1127.78 1112.05 1106 1095C1102.01 1092.03 1097.99 1089.09 1093.98 1086.15C1087.05 1081.07 1087.05 1081.07 1083.86 1078.5C1071.41 1068.68 1057.79 1067.3 1042.46 1065.99C1041.28 1065.88 1040.1 1065.78 1038.89 1065.68C1037.83 1065.59 1036.77 1065.51 1035.67 1065.42C1033 1065 1033 1065 1030 1063C1029.59 1060.29 1029.87 1057.76 1030 1055C1028.82 1054.63 1028.82 1054.63 1027.62 1054.25C1024.61 1052.81 1024.28 1051.95 1023 1049C1027.78 1041.28 1033.13 1035.44 1040 1029.56C1050.83 1020.09 1058.67 1007.88 1060.45 993.316C1060.87 986.662 1061.02 980.578 1060 974C1059.46 967.162 1060.02 961.782 1064.44 956.169C1068.65 951.35 1073.12 947.024 1077.88 942.75C1084.54 936.629 1089.82 930.426 1095 923C1116.93 893.464 1139.91 882.518 1176 877C1190.2 875.026 1204.52 873.51 1218.85 873.072C1220.31 873.023 1221.76 872.961 1223.21 872.885Z" fill="#0A0A0A" fill-opacity="0.8"/>
<path d="M581.625 738.75C585.272 740.101 588.908 741.023 592.688 741.938C604.666 745.085 617.333 750.901 624.656 761.367C625.859 763.545 626.934 765.753 628 768C628.66 768.99 629.32 769.98 630 771C632.168 774.251 634.012 777.602 635.852 781.047C636.972 783.139 636.972 783.139 639 785C639.103 785.949 639.206 786.898 639.312 787.875C640.201 791.913 641.807 792.487 645 795C646.881 797.347 646.881 797.347 648.629 799.922C649.272 800.865 649.914 801.809 650.576 802.781C651.232 803.761 651.887 804.741 652.562 805.75C653.552 807.196 653.552 807.196 654.561 808.672C658.14 813.968 661.292 819.21 664 825C664.412 825.804 664.825 826.609 665.25 827.438C667.009 833.448 666.363 839.24 664 845C670.964 845.494 675.868 843.867 682.25 841.188C684.289 840.357 686.328 839.528 688.367 838.699C689.441 838.259 690.514 837.818 691.62 837.365C695.109 835.956 698.616 834.606 702.133 833.27C714.044 828.727 725.588 824.087 736.68 817.777C741.39 815.256 745.638 813.711 751 813.625C751.804 813.597 752.609 813.568 753.438 813.539C758.241 814.403 761.219 816.996 764.16 820.777C771.691 833.288 777.609 846.173 776.875 861.031C776.985 863.647 777.363 865.733 777.977 868.258C783.265 890.786 775.97 914.307 764.551 933.602C763 936 763 936 761 938C746.719 936.966 736.843 929.867 726.747 920.567C723.876 917.992 720.855 915.618 717.812 913.25C717.229 912.796 716.646 912.341 716.045 911.873C702.712 901.548 689.41 892.842 674 886C673.67 886.33 673.34 886.66 673 887C673.433 887.598 673.866 888.196 674.312 888.813C676.276 892.521 677.233 896.13 678.254 900.184C678.954 903.029 678.954 903.029 680.07 905.797C681.253 909.873 681.342 913.591 681.312 917.813C681.309 918.62 681.306 919.428 681.302 920.26C681.213 925.111 680.73 929.08 678.84 933.582C677.921 936.228 677.489 938.843 677.073 941.607C674.33 959.812 667.993 985.625 652.887 997.688C645.337 1002.19 637.307 1005.21 629 1008C627.918 1008.38 626.837 1008.76 625.723 1009.15C594.661 1016.25 550.609 1004.57 523.179 989.445C513.346 984.205 504.61 984.164 493.75 984.25C490.411 984.248 487.073 984.23 483.734 984.203C482.92 984.198 482.105 984.192 481.265 984.186C450.188 983.785 426.524 971.363 400.762 955.008C397.415 952.885 394.056 950.788 390.672 948.727C389.883 948.245 389.093 947.764 388.28 947.268C376.398 940.661 362.804 940.763 349.613 941.166C348.545 941.185 347.476 941.203 346.375 941.223C344.933 941.265 344.933 941.265 343.461 941.309C341 941 341 941 339.207 939.717C337.318 937.03 337.303 934.207 337 931C336.196 930.856 335.391 930.711 334.562 930.563C332 930 332 930 331 929C331.54 919.819 336.669 915.184 342.562 908.699C354.369 895.625 362.479 883.386 362.203 865.375C361.972 861.536 361.512 857.747 361 853.938C358.569 835.68 358.569 835.68 362.547 829.797C366.538 824.861 370.848 820.215 375.27 815.664C381.36 809.243 385.624 802.308 390.008 794.689C391.728 791.76 393.633 788.965 395.559 786.168C396.602 784.599 397.587 782.991 398.535 781.363C412.445 757.785 438.758 748.527 463.817 741.814C500.654 732.394 545.036 724.78 581.625 738.75Z" fill="#0A0A0A" fill-opacity="0.8"/>
<path d="M310.898 350.875C331.506 350.529 352.199 354.004 371.116 362.218C373.802 363.333 376.538 364.286 379.28 365.253C391.488 369.605 404.129 376.824 410.445 388.723C411.086 390.395 411.688 392.082 412.242 393.785C413.306 396.893 415.118 399.328 417 402C418.417 404.657 419.713 407.33 420.898 410.098C423.179 415.416 425.835 420.164 429 425C430.147 426.812 431.293 428.624 432.438 430.437C434.133 433.119 435.834 435.768 437.676 438.352C443.802 446.956 446.008 455.44 445 466C444 469.687 444 469.687 443 472C449.503 472.346 454.513 471.209 460.641 469.105C461.553 468.802 462.466 468.498 463.407 468.186C466.359 467.199 469.305 466.194 472.25 465.187C474.278 464.504 476.306 463.82 478.333 463.136C493.006 458.16 507.484 452.806 521.803 446.885C526.954 444.809 531.501 443.805 537 445C546.608 451.348 551.351 466.283 554 477C554.852 482.755 555.185 488.374 555.238 494.187C555.246 495.048 555.254 495.909 555.263 496.796C555.277 498.611 555.287 500.426 555.295 502.242C555.307 504.066 555.327 505.891 555.357 507.715C555.717 529.939 551.349 549.5 536.473 566.773C534.299 568.584 532.177 568.589 529.43 568.469C515.67 565.814 505.28 554.409 495.913 544.81C491.521 540.371 486.907 536.688 481.824 533.047C479.153 531.111 476.648 529.061 474.125 526.937C466.691 520.935 458.175 515.753 449 513C449.71 513.582 449.71 513.582 450.434 514.176C452.43 516.501 452.624 518.171 453.062 521.187C453.576 524.5 454.143 527.469 455.125 530.687C457.408 539.528 456.912 549.111 453.831 557.623C452.662 560.967 451.802 564.375 450.908 567.801C439.131 612.925 439.131 612.925 421.781 623.59C409.515 629.809 396.793 633.403 383 633.312C382.091 633.308 381.183 633.303 380.247 633.298C371.287 633.145 362.737 631.933 354 630C353.261 629.839 352.523 629.678 351.762 629.512C331.529 624.965 312.421 617.021 293.816 607.986C281.245 601.963 269.178 601.329 255.445 600.474C241.261 599.573 228.153 597.423 215.125 591.375C214.381 591.036 213.637 590.697 212.87 590.347C197.961 583.383 184.541 574.251 171.477 564.324C158.738 554.757 146.099 550.448 130.098 549.77C129.245 549.733 128.393 549.697 127.514 549.659C125.826 549.596 124.136 549.548 122.447 549.517C118.957 549.405 116.584 549.312 113.469 547.648C112 546 112 546 111.562 543.062C111.319 539.773 111.319 539.773 108.375 538.062C106 536 106 536 105.625 532.875C107.283 525.808 114.318 520.562 119.43 515.773C128.59 507.101 139.326 495.408 140.118 482C140.099 479.679 140.015 477.369 139.914 475.051C139.869 473.298 139.826 471.544 139.785 469.791C139.711 467.056 139.625 464.324 139.506 461.59C138.741 443.134 138.741 443.134 145.906 435.043C146.597 434.369 147.288 433.695 148 433C148.5 432.475 149 431.95 149.516 431.408C150.677 430.248 151.929 429.18 153.188 428.125C154.033 427.394 154.879 426.663 155.75 425.91C156.493 425.28 157.235 424.649 158 424C161.92 420.445 164.747 416.61 167.723 412.273C190.169 380.01 211.788 364.015 250.805 356.692C270.692 353.168 290.734 351.522 310.898 350.875Z" fill="#0A0A0A" fill-opacity="0.8"/>
<path d="M812.625 183.875C813.347 184.024 814.068 184.173 814.812 184.327C819.252 185.336 822.943 186.886 826.959 189.01C830.456 190.706 834.162 191.697 837.875 192.812C845.214 195.16 851.15 197.852 857 203C857.896 203.776 858.792 204.552 859.715 205.352C864.624 209.902 867.862 213.557 869.492 220.102C870.143 222.536 871.415 224.07 873 226C873.673 227.664 874.341 229.33 875 231C875.66 231.66 876.32 232.32 877 233C877.124 234.114 877.248 235.227 877.375 236.375C878.106 240.615 879.022 241.096 882 244C899.239 269.125 899.239 269.125 897.688 283.5C897 287 897 287 896 289C902.057 289.363 906.901 288.08 912.641 286.219C914.023 285.781 914.023 285.781 915.434 285.335C917.385 284.714 919.335 284.088 921.283 283.458C924.195 282.518 927.112 281.598 930.031 280.68C940.165 277.455 950.055 273.939 959.787 269.639C972.476 264.049 972.476 264.049 980 266C989.472 272.334 993.051 285.472 995.359 296.152C996.109 300.655 996.281 304.898 996.043 309.449C995.904 311.971 995.904 311.971 996.488 314.27C999.667 331.231 994.119 353.539 984.938 367.688C982.562 371.088 980.23 374.371 977 377C969.5 377.473 961.732 372.306 956.27 367.695C953.48 365.164 950.738 362.587 948 360C946.653 358.804 945.3 357.616 943.938 356.438C941.845 354.625 939.779 352.797 937.742 350.922C921.683 335.135 921.683 335.135 902 327C902.66 327.66 903.32 328.32 904 329C904.431 330.985 904.775 332.989 905.062 335C905.586 339.139 905.586 339.139 907 343C907.923 359.345 907.923 359.345 904.914 366.656C903.707 369.753 902.943 372.905 902.125 376.125C891.764 415.442 891.764 415.442 877.688 424C855.407 436.812 830.254 434.323 806.404 428.101C792.676 424.346 779.678 418.899 766.984 412.492C758.034 407.991 750.364 404.744 740.194 404.133C735.603 403.855 731.021 403.447 726.438 403.062C725.442 402.98 724.447 402.897 723.421 402.812C715.745 402.142 708.434 401.114 701 399C699.517 398.58 699.517 398.58 698.004 398.152C681.066 392.478 666.083 380.579 651.726 370.239C638.646 360.846 627.238 357.911 611.282 357.429C603.617 357.137 603.617 357.137 600 355C598.961 353.125 598.961 353.125 598.375 351C597.384 347.501 597.256 347.171 594 345C594.458 340.123 595.569 337.778 598.938 334.25C600.156 332.953 600.156 332.953 601.398 331.629C603.086 329.923 604.799 328.242 606.539 326.59C616.222 317.371 624.715 306.122 625.105 292.284C625.027 287.313 624.848 282.342 624.561 277.38C624.054 268.049 624.586 261.696 630.864 254.19C634.075 250.897 637.456 247.924 641 245C644.793 241.584 648.039 238.129 650.82 233.836C668.341 207.15 686.021 192.899 717.643 186.244C748.911 180.172 781.274 177.203 812.625 183.875Z" fill="#0A0A0A" fill-opacity="0.8"/>
<path d="M785.062 494.813C786.218 495.227 787.373 495.641 788.564 496.068C801.865 501.093 810.834 508.67 816.957 521.605C817.678 523.26 818.36 524.931 819.012 526.613C819.991 529.197 819.991 529.197 822 532C822.227 532.846 822.454 533.691 822.688 534.562C824.272 538.713 826.599 541.826 829.191 545.41C831.778 549.114 833.908 553.001 836 557C836.577 558.072 837.155 559.145 837.75 560.25C840.514 566.33 841.124 573.628 839 580C847.685 579.767 855.195 577.115 863.25 574.062C864.575 573.57 865.9 573.078 867.225 572.586C876.391 569.149 885.351 565.34 894.173 561.086C904.339 556.224 904.339 556.224 910 557.875C918.094 563.608 921.662 573.532 923.359 583.005C927.169 607.748 926.409 632.82 912 654C911.34 654.99 910.68 655.98 910 657C897.277 654.762 890.104 648.732 881 640C869.925 629.404 858.252 619.07 844 613C844.277 613.713 844.554 614.426 844.84 615.16C845.202 616.118 845.564 617.076 845.938 618.062C846.297 619.002 846.657 619.942 847.027 620.91C851.093 633.825 849.43 646.962 845.484 659.607C844.876 661.56 844.299 663.519 843.727 665.482C834.627 696.093 834.627 696.093 822.074 702.955C819.101 704.454 816.083 705.739 813 707C812.126 707.362 811.252 707.724 810.352 708.098C785.048 716.678 755.052 704.961 732.375 694.188C731.404 693.707 730.434 693.227 729.434 692.732C717.51 686.967 705.159 686.423 692.124 685.549C678.338 684.604 666.382 680.995 654.5 673.812C653.7 673.34 652.901 672.867 652.077 672.38C643.938 667.498 636.148 662.071 628.703 656.184C619.33 649.154 607.216 647.379 595.77 648.055C592.683 647.994 590.711 647.466 588 646C587.283 644.018 586.617 642.016 586 640C584.007 638.127 584.007 638.127 582 637C582.535 632.804 583.807 630.545 586.5 627.312C587.219 626.44 587.939 625.567 588.68 624.668C590.928 622.082 593.265 619.609 595.625 617.125C607.566 604.008 608.357 590.58 607.57 573.709C607.38 565.362 608.275 560.227 614 554C616.43 551.559 616.43 551.559 618.875 549.438C625.486 543.079 630.186 535.577 635.078 527.855C650.127 504.345 669.609 497.167 695.793 491.324C697.861 490.879 699.93 490.437 702 490C702.845 489.818 703.69 489.636 704.561 489.448C731.416 483.875 759.391 485.597 785.062 494.813Z" fill="#0A0A0A" fill-opacity="0.8"/>
<path d="M1279.81 99.5625C1285.37 105.126 1289.11 110.632 1292 118C1292.52 119.196 1293.03 120.392 1293.56 121.625C1294.42 123.636 1295.26 125.655 1296.06 127.687C1297.75 131.853 1299.94 135.689 1302.17 139.583C1314.43 161.056 1314.43 161.056 1312.61 171.188C1312.15 172.816 1311.59 174.414 1311 176C1322.03 173.958 1332.4 170.744 1343 167.125C1344.55 166.602 1346.1 166.08 1347.66 165.559C1356.38 162.627 1356.38 162.627 1365.03 159.503C1366.87 158.817 1366.87 158.817 1368.75 158.117C1369.82 157.708 1370.88 157.3 1371.98 156.878C1375.19 155.946 1377.68 155.72 1381 156C1385.22 158.577 1387.09 161.46 1389.19 165.875C1389.68 166.883 1390.16 167.891 1390.67 168.93C1398.59 187.194 1397.16 214.675 1390.27 233.184C1383.41 248.448 1383.41 248.448 1377 253C1366.75 251.813 1359.57 244.178 1352.47 237.39C1350.27 235.315 1348.01 233.317 1345.75 231.312C1342.71 228.598 1339.82 225.814 1337 222.875C1330.62 216.415 1323.2 211.797 1315 208C1315.2 208.629 1315.41 209.258 1315.62 209.906C1317.32 215.294 1318.59 220.37 1319 226C1319.06 226.689 1319.11 227.378 1319.17 228.088C1319.49 235.847 1317.47 242.596 1315.12 249.938C1314.93 250.571 1314.73 251.204 1314.52 251.857C1303.78 285.82 1303.78 285.82 1290.44 293.188C1288.97 293.823 1287.49 294.424 1286 295C1285.11 295.373 1284.22 295.745 1283.3 296.129C1258.71 305.167 1231.01 295.485 1208.37 285.125C1205.56 283.8 1202.87 282.386 1200.2 280.812C1191.09 275.451 1182.99 273.48 1172.52 272.29C1145.27 269.151 1126.12 259.893 1104.74 242.845C1092.18 232.856 1080.66 230.085 1064.91 229.246C1062 229 1062 229 1060 228C1059.54 226.298 1059.54 226.298 1059.06 224.562C1058.34 220.768 1058.34 220.768 1055 219C1054.55 216.691 1054.55 216.691 1055 214C1056.79 211.465 1056.79 211.465 1059.19 208.938C1060.35 207.683 1060.35 207.683 1061.54 206.402C1064 204 1064 204 1066.51 202.059C1069.39 199.679 1071.41 197.122 1073.62 194.125C1074.38 193.117 1075.14 192.109 1075.91 191.07C1082.62 181.195 1082.23 171.437 1082.43 159.893C1082.65 152.673 1083.21 146.623 1087.76 140.715C1088.4 140.128 1089.03 139.542 1089.69 138.937C1090.39 138.275 1091.09 137.612 1091.82 136.93C1093.89 135.099 1096 133.332 1098.12 131.562C1101.57 128.593 1103.83 125.501 1106.23 121.664C1108.51 118.237 1111.01 115.035 1113.56 111.812C1114.02 111.23 1114.48 110.648 1114.95 110.049C1115.86 108.912 1116.76 107.779 1117.67 106.649C1118.55 105.561 1119.42 104.466 1120.27 103.365C1134.03 86.0866 1161.11 82.719 1181.7 80.3359C1182.79 80.2251 1183.88 80.1142 1185 80C1185.96 79.8891 1186.93 79.7783 1187.92 79.6641C1217.59 76.7603 1256.02 78.8939 1279.81 99.5625Z" fill="#0A0A0A" fill-opacity="0.8"/>
<path d="M1153.31 406.324C1153.87 406.877 1154.43 407.43 1155 408C1155.58 408.563 1156.16 409.127 1156.75 409.707C1159.98 413.146 1161.76 416.362 1163.22 420.824C1164.14 423.38 1165.32 425.712 1166.56 428.125C1167.94 430.815 1169.08 433.236 1170 436.125C1170.88 438.648 1171.74 440.248 1173.19 442.438C1175.77 446.395 1177.77 450.536 1179.75 454.812C1180.21 455.8 1180.21 455.8 1180.68 456.808C1182.64 461.097 1184.15 464.64 1184.19 469.375C1184.2 470.125 1184.22 470.875 1184.23 471.648C1183.96 474.377 1183.05 476.482 1182 479C1191.59 477.822 1200.45 474.683 1209.52 471.515C1212.06 470.627 1214.6 469.75 1217.15 468.875C1224.56 466.319 1231.94 463.76 1239.15 460.685C1242.97 459.268 1245.79 459.588 1249.56 460.875C1257.07 467.416 1259.14 478.503 1260 488C1261.35 509.705 1260.61 531.127 1247.06 549.188C1244.84 551.59 1244.45 551.971 1241.06 552.188C1230.77 548.195 1223.62 540.704 1216.01 532.925C1206.88 523.606 1197.2 514.123 1185 509C1185.66 509.66 1186.32 510.32 1187 511C1187.63 513.801 1187.63 513.801 1188.13 517.312C1188.38 519.008 1188.38 519.008 1188.63 520.738C1189.78 532.29 1188.52 541.396 1184.5 552.312C1184.04 553.593 1183.58 554.873 1183.12 556.153C1172.57 585.217 1172.57 585.217 1160.55 591.223C1138.86 600.477 1117.3 595.373 1096.16 587.203C1090.2 584.767 1084.57 581.731 1078.88 578.75C1069.96 574.132 1062.15 571.218 1052.18 570.221C1027.31 567.694 1009.8 558.769 990.558 543.249C979.64 534.498 970.005 530.741 956.106 529.77C950.429 529.317 950.429 529.317 948.26 527.713C947 526 947 526 947 522C946.01 521.67 945.02 521.34 944 521C943 518 943 518 944.078 515.172C946.214 511.647 948.761 509.03 951.75 506.25C962.123 496.205 969.286 485.858 969.561 471.029C969.561 470.009 969.562 468.989 969.563 467.938C969.637 451.029 969.637 451.029 974.555 445.136C976.409 443.33 978.327 441.66 980.313 440C985.097 435.772 989.203 431.933 992.496 426.41C1004.54 407.11 1019.62 396.806 1041.63 391.532C1076.78 383.641 1124.18 380.776 1153.31 406.324Z" fill="#0A0A0A" fill-opacity="0.8"/>
<path d="M950.336 699.875C965.254 699.58 979.026 701.886 993 707C993.825 707.297 994.651 707.594 995.501 707.9C1015.16 715.063 1015.16 715.063 1022 722C1022.83 722.812 1022.83 722.812 1023.68 723.641C1028.56 728.834 1031.49 735.163 1034.08 741.742C1034.8 743.931 1034.8 743.931 1036 745C1036.04 747 1036.04 749 1036 751C1036.99 751.33 1037.98 751.66 1039 752C1040.62 754.498 1042.08 756.952 1043.5 759.562C1043.89 760.254 1044.28 760.946 1044.68 761.658C1047.98 767.617 1051.06 773.832 1051.81 780.687C1051.9 781.393 1051.99 782.098 1052.08 782.824C1051.98 785.53 1051.04 787.52 1050 790C1060.1 789.807 1069.16 786.781 1078.69 783.75C1080.24 783.266 1081.78 782.783 1083.33 782.301C1084.87 781.82 1086.41 781.34 1087.95 780.859C1088.7 780.624 1089.46 780.389 1090.24 780.147C1094 778.969 1097.74 777.753 1101.46 776.455C1102.18 776.213 1102.89 775.971 1103.63 775.721C1105.58 775.06 1107.52 774.379 1109.46 773.696C1113.68 772.867 1116.04 773.397 1120 775C1131.06 786.577 1130.37 805.001 1130.22 819.945C1130.04 827.236 1129.03 833.972 1127 841C1126.74 841.893 1126.49 842.787 1126.23 843.707C1123.68 851.115 1118.85 856.964 1114 863C1100.99 861.428 1091.5 850.264 1082.51 841.56C1069.72 828.327 1069.72 828.327 1054 821C1054.5 822.114 1054.99 823.227 1055.5 824.375C1061.63 843.666 1053.42 863.739 1044.88 881C1043.63 883.368 1042.33 885.68 1041 888C1040.52 888.849 1040.04 889.699 1039.55 890.574C1035.73 896.504 1030.5 898.69 1024 901C1023.16 901.32 1022.31 901.639 1021.44 901.969C997.958 909.689 971.694 899.191 950.64 889.087C939.445 883.716 929.481 879.291 917 878C888.526 874.204 869.893 863.914 847.559 846.047C838.959 839.585 827.756 838.215 817.313 837.25C811.59 836.533 811.59 836.533 809.055 834.242C807.719 832.174 806.787 830.329 806 828C805.719 827.354 805.438 826.708 805.149 826.043C805 824 805 824 806.59 821.668C807.752 820.44 807.752 820.44 808.938 819.187C809.769 818.303 810.6 817.419 811.457 816.508C813.607 814.387 815.786 812.465 818.125 810.562C824.087 805.542 828.534 798.378 831 791C831.22 787.874 831.22 787.874 831.098 784.52C831.096 783.272 831.094 782.025 831.092 780.74C831.072 778.141 831.026 775.542 830.951 772.943C830.991 765.893 831.537 761.644 836.305 756.258C839.056 753.575 841.907 751.249 845.063 749.062C849.314 746.067 851.857 742.314 854.801 738.074C868.473 718.962 883.636 708.163 907 704C921.402 701.647 935.769 700.421 950.336 699.875Z" fill="#0A0A0A" fill-opacity="0.8"/>
</svg>
