<svg width="200" height="200" viewBox="0 0 200 200" fill="none" xmlns="http://www.w3.org/2000/svg">
<circle id="Ellipse 1" cx="100" cy="100" r="95" stroke="#f4f5f5ce" stroke-opacity="0.7" stroke-width="10"/>
<path id="Ellipse 2" d="M159.007 86.4334C162.215 86.4894 166.07 89.3722 169.317 94.7087C172.457 99.867 174.407 106.368 174.313 111.764C174.164 120.291 169.829 128.599 164.586 135.213C161.99 138.488 159.236 141.264 156.813 143.344C154.322 145.482 152.377 146.717 151.408 147.113C144.486 149.943 141.134 149.115 139.467 147.754C137.58 146.213 136.424 142.937 136.283 137.886C136.007 128.004 139.688 114.968 141.671 108.799C143.329 103.643 145.476 97.8291 148.464 93.3632C151.459 88.8878 154.874 86.3613 159.007 86.4334Z" stroke="#f4f5f5ce" stroke-opacity="0.7" stroke-width="6"/>
<path id="Ellipse 3" d="M55.5261 46.9805C54.7905 46.4058 53.6459 46.0153 51.9935 46.0135C50.3465 46.0118 48.3891 46.4021 46.3105 47.1687C42.1161 48.7155 37.9729 51.5879 35.5236 54.7229C31.6398 59.6939 30.1825 66.4937 30.0499 72.8035C29.9844 75.9206 30.2454 78.8152 30.6446 81.1438C31.0591 83.5618 31.5784 85.1097 31.8894 85.6871C34.4965 90.5287 36.621 91.2775 37.799 91.2599C39.2997 91.2376 41.3715 90.0515 43.8619 87.1398C48.6866 81.4991 52.7766 72.1297 54.5878 67.5372C56.0998 63.7031 57.6138 59.3201 58.0142 55.3681C58.4171 51.3904 57.6356 48.6286 55.5261 46.9805Z" stroke="#f4f5f5ce" stroke-opacity="0.7" stroke-width="6"/>
</svg>
