<svg width="200" height="200" viewBox="0 0 200 200" fill="none" xmlns="http://www.w3.org/2000/svg">
<circle id="Ellipse 1" cx="100" cy="100" r="95" stroke="#f4f5f5ce" stroke-opacity="0.7" stroke-width="10"/>
<path id="Ellipse 2" d="M153.289 40.9844C158.625 46.9098 161.864 54.5047 162.995 61.2708C163.559 64.6481 163.579 67.7107 163.141 70.1732C162.694 72.6782 161.829 74.2811 160.888 75.1288C159.265 76.5897 156.439 77.3188 152.264 77.0045C148.177 76.6967 143.367 75.4259 138.459 73.6211C128.615 70.0016 119.093 64.507 115.367 61.578C105.201 53.585 100.146 47.5143 98.1289 43.0602C97.1429 40.8835 96.9359 39.2109 97.0959 37.9314C97.2535 36.6704 97.7956 35.5594 98.7083 34.5308C100.638 32.3563 104.095 30.7012 108.151 29.5399C112.109 28.4066 116.179 27.8691 118.857 27.6281C127.727 26.8298 140.748 27.0558 153.289 40.9844Z" stroke="#f4f5f5ce" stroke-opacity="0.7" stroke-width="6"/>
<path id="Ellipse 3" d="M59.5261 43.9805C58.7905 43.4058 57.6459 43.0153 55.9935 43.0135C54.3465 43.0118 52.3891 43.4021 50.3105 44.1687C46.1161 45.7155 41.9729 48.5879 39.5236 51.7229C35.6398 56.6939 34.1825 63.4937 34.0499 69.8035C33.9844 72.9206 34.2454 75.8152 34.6446 78.1438C35.0591 80.5618 35.5784 82.1097 35.8894 82.6871C38.4965 87.5287 40.621 88.2775 41.799 88.2599C43.2997 88.2376 45.3715 87.0515 47.8619 84.1398C52.6866 78.4991 56.7766 69.1297 58.5878 64.5372C60.0998 60.7031 61.6138 56.3201 62.0142 52.3681C62.4171 48.3904 61.6356 45.6286 59.5261 43.9805Z" stroke="#f4f5f5ce" stroke-opacity="0.7" stroke-width="6"/>
</svg>
