<svg width="200" height="200" viewBox="0 0 200 200" fill="none" xmlns="http://www.w3.org/2000/svg">
<circle id="Ellipse 1" cx="100" cy="100" r="95" stroke="#f4f5f5ce" stroke-opacity="0.7" stroke-width="10"/>
<path id="Ellipse 2" d="M175 99.3479C175 105.544 172.838 111.64 169.846 116.158C168.354 118.411 166.715 120.183 165.141 121.363C163.536 122.565 162.212 123 161.287 123C159.647 123 157.622 122.021 155.281 119.662C152.992 117.355 150.77 114.093 148.766 110.436C144.744 103.094 141.96 94.8339 141.307 91.2025C139.488 81.0865 139.765 74.9388 140.936 71.3921C141.503 69.675 142.242 68.679 142.953 68.0866C143.656 67.5009 144.512 67.1583 145.577 67.043C147.849 66.7968 150.803 67.6194 153.913 69.0815C156.937 70.5028 159.709 72.335 161.474 73.6091C167.32 77.828 175 84.7397 175 99.3479Z" stroke="#f4f5f5ce" stroke-opacity="0.7" stroke-width="6"/>
<path id="Ellipse 3" d="M52 48.0765C52 52.6882 54.4518 57.4489 58.1513 61.1441C61.8894 64.8777 66.369 67 69.7897 67C75.3568 67 81.2595 62.5852 86.3264 56.4694C91.3042 50.4611 94.6682 43.7904 95.4202 41.0257C97.6559 32.8066 97.2155 28.1554 95.9633 25.6469C94.8475 23.4118 92.7537 22.2737 89.5189 22.042C86.2028 21.8045 82.1813 22.594 78.2647 23.8114C74.3989 25.013 70.883 26.5518 68.6645 27.6107C60.9195 31.3072 52 36.9138 52 48.0765Z" stroke="#f4f5f5ce" stroke-opacity="0.7" stroke-width="6"/>
</svg>
