<svg width="200" height="200" viewBox="0 0 200 200" fill="none" xmlns="http://www.w3.org/2000/svg">
<circle id="Ellipse 1" cx="100" cy="100" r="95" stroke="#f4f5f5ce" stroke-opacity="0.7" stroke-width="10"/>
<path id="Ellipse 2" d="M146.5 45.9592C146.5 49.1221 144.273 52.7207 140.397 55.7094C136.576 58.6555 131.827 60.4604 128 60.4604C121.884 60.4604 115.683 56.7709 110.554 51.992C108.039 49.6484 105.894 47.1456 104.277 44.9308C102.619 42.6591 101.65 40.8712 101.329 39.9622C99.0561 33.5109 99.6296 30.2307 100.675 28.6136C101.703 27.0252 103.877 25.9856 107.541 25.783C114.853 25.3787 124.696 28.5193 129.463 30.2754C133.411 31.7298 137.784 33.599 141.144 36.2361C144.443 38.8256 146.5 41.9288 146.5 45.9592Z" stroke="#f4f5f5ce" stroke-opacity="0.7" stroke-width="6"/>
</svg>
