<svg width="200" height="200" viewBox="0 0 200 200" fill="none" xmlns="http://www.w3.org/2000/svg">
<circle id="Ellipse 1" cx="100" cy="100" r="95" stroke="#f4f5f5ce" stroke-opacity="0.7" stroke-width="10"/>
<path id="Ellipse 2" d="M89.0033 146.141C91.1634 150.038 91.3396 155.203 89.9687 160.048C88.5821 164.949 85.8225 168.806 82.9849 170.379C80.7194 171.635 77.8535 172.071 74.539 171.787C71.2308 171.503 67.6669 170.517 64.2067 169.148C57.1962 166.373 51.2348 162.285 49.3095 160.298C43.5624 154.367 41.7582 150.227 41.6332 147.539C41.5228 145.162 42.722 143.254 45.3079 141.566C47.9672 139.831 51.7055 138.628 55.5707 137.835C59.3832 137.052 63.0613 136.718 65.4243 136.582C73.6734 136.106 83.7721 136.703 89.0033 146.141Z" stroke="#f4f5f5ce" stroke-opacity="0.7" stroke-width="6"/>
<path id="Ellipse 3" d="M101.385 59.3633C105.909 53.573 107.989 45.9625 107.965 39.0247C107.941 31.9175 105.744 26.4041 102.801 24.1048C100.45 22.2677 97.0096 21.4473 92.6295 21.6229C88.2806 21.7972 83.3562 22.9433 78.4413 24.6291C68.556 28.0195 59.3986 33.346 56.0086 36.1838C46.5876 44.0703 42.3971 50.0649 41.0988 54.4259C40.4705 56.5364 40.5285 58.2287 40.9544 59.6251C41.3866 61.0417 42.2612 62.3589 43.5751 63.593C46.2728 66.127 50.5169 68.0253 55.1072 69.3781C59.6268 70.7101 64.1393 71.4163 67.072 71.7623C76.9641 72.9295 90.6946 73.0469 101.385 59.3633Z" stroke="#f4f5f5ce" stroke-opacity="0.7" stroke-width="6"/>
</svg>
